<svg width="48" height="48" viewBox="0 0 48 48" fill="none" xmlns="http://www.w3.org/2000/svg">
<rect x="0.5" y="0.5" width="47" height="47" rx="23.5" stroke="#EEEEEE"/>
<path opacity="0.4" d="M25.1866 15.84H14.8133C12.5333 15.84 10.6666 17.7066 10.6666 19.9866V35.1333C10.6666 37.0666 12.0533 37.8933 13.7466 36.9466L18.9866 34.0266C19.5466 33.7199 20.4533 33.7199 21 34.0266L26.24 36.9466C27.9333 37.8933 29.3199 37.0666 29.3199 35.1333V19.9866C29.3333 17.7066 27.4666 15.84 25.1866 15.84Z" fill="#3BBB6E"/>
<path d="M37.3333 14.8133V29.96C37.3333 31.8933 35.9466 32.7066 34.2533 31.7733L29.3333 29.0266V19.9866C29.3333 17.7066 27.4666 15.84 25.1866 15.84H18.6666V14.8133C18.6666 12.5333 20.5333 10.6666 22.8133 10.6666H33.1866C35.4666 10.6666 37.3333 12.5333 37.3333 14.8133Z" fill="#3BBB6E"/>
</svg>
